<mxfile host="app.diagrams.net" modified="2024-05-03T08:37:24.942Z" agent="Mozilla/5.0 (Windows NT 10.0; Win64; x64) AppleWebKit/537.36 (KHTML, like Gecko) Chrome/124.0.0.0 Safari/537.36" etag="_A3ssiJoI9UyuK38tFtS" version="24.3.1" type="github">
  <diagram id="wFE0QG_FPsp0jaGvCLVb" name="Page-1">
    <mxGraphModel dx="1985" dy="1233" grid="1" gridSize="10" guides="1" tooltips="1" connect="1" arrows="1" fold="1" page="1" pageScale="1" pageWidth="850" pageHeight="1100" math="0" shadow="0">
      <root>
        <mxCell id="0" />
        <mxCell id="1" parent="0" />
        <mxCell id="D9f68r6XAVxFdLmyGOuP-6" value="" style="edgeStyle=orthogonalEdgeStyle;rounded=0;orthogonalLoop=1;jettySize=auto;html=1;endArrow=none;endFill=0;" edge="1" parent="1" source="D9f68r6XAVxFdLmyGOuP-1" target="D9f68r6XAVxFdLmyGOuP-5">
          <mxGeometry relative="1" as="geometry" />
        </mxCell>
        <mxCell id="D9f68r6XAVxFdLmyGOuP-1" value="" style="whiteSpace=wrap;html=1;aspect=fixed;" vertex="1" parent="1">
          <mxGeometry x="360" y="200" width="80" height="80" as="geometry" />
        </mxCell>
        <mxCell id="D9f68r6XAVxFdLmyGOuP-2" value="00" style="whiteSpace=wrap;html=1;aspect=fixed;" vertex="1" parent="1">
          <mxGeometry x="378.44" y="218.44" width="43.12" height="43.12" as="geometry" />
        </mxCell>
        <mxCell id="D9f68r6XAVxFdLmyGOuP-23" style="edgeStyle=orthogonalEdgeStyle;rounded=0;orthogonalLoop=1;jettySize=auto;html=1;entryX=0.5;entryY=0;entryDx=0;entryDy=0;endArrow=none;endFill=0;" edge="1" parent="1" source="D9f68r6XAVxFdLmyGOuP-5" target="D9f68r6XAVxFdLmyGOuP-21">
          <mxGeometry relative="1" as="geometry" />
        </mxCell>
        <mxCell id="D9f68r6XAVxFdLmyGOuP-28" value="" style="edgeStyle=orthogonalEdgeStyle;rounded=0;orthogonalLoop=1;jettySize=auto;html=1;endArrow=none;endFill=0;" edge="1" parent="1" source="D9f68r6XAVxFdLmyGOuP-5" target="D9f68r6XAVxFdLmyGOuP-27">
          <mxGeometry relative="1" as="geometry" />
        </mxCell>
        <mxCell id="D9f68r6XAVxFdLmyGOuP-5" value="01" style="whiteSpace=wrap;html=1;aspect=fixed;" vertex="1" parent="1">
          <mxGeometry x="360" y="360" width="80" height="80" as="geometry" />
        </mxCell>
        <mxCell id="D9f68r6XAVxFdLmyGOuP-12" style="edgeStyle=orthogonalEdgeStyle;rounded=0;orthogonalLoop=1;jettySize=auto;html=1;endArrow=none;endFill=0;" edge="1" parent="1" source="D9f68r6XAVxFdLmyGOuP-7">
          <mxGeometry relative="1" as="geometry">
            <mxPoint x="360" y="315" as="targetPoint" />
          </mxGeometry>
        </mxCell>
        <mxCell id="D9f68r6XAVxFdLmyGOuP-7" value="S1*S3" style="text;html=1;align=center;verticalAlign=middle;whiteSpace=wrap;rounded=0;" vertex="1" parent="1">
          <mxGeometry x="440" y="300" width="60" height="30" as="geometry" />
        </mxCell>
        <mxCell id="D9f68r6XAVxFdLmyGOuP-16" style="edgeStyle=orthogonalEdgeStyle;rounded=0;orthogonalLoop=1;jettySize=auto;html=1;endArrow=none;endFill=0;entryX=0.5;entryY=1;entryDx=0;entryDy=0;" edge="1" parent="1" source="D9f68r6XAVxFdLmyGOuP-13" target="D9f68r6XAVxFdLmyGOuP-1">
          <mxGeometry relative="1" as="geometry">
            <mxPoint x="400" y="290" as="targetPoint" />
            <Array as="points">
              <mxPoint x="760" y="290" />
              <mxPoint x="400" y="290" />
            </Array>
          </mxGeometry>
        </mxCell>
        <mxCell id="D9f68r6XAVxFdLmyGOuP-24" style="edgeStyle=orthogonalEdgeStyle;rounded=0;orthogonalLoop=1;jettySize=auto;html=1;endArrow=none;endFill=0;" edge="1" parent="1" source="D9f68r6XAVxFdLmyGOuP-70">
          <mxGeometry relative="1" as="geometry">
            <mxPoint x="760" y="440" as="targetPoint" />
            <mxPoint x="760" y="700" as="sourcePoint" />
            <Array as="points" />
          </mxGeometry>
        </mxCell>
        <mxCell id="D9f68r6XAVxFdLmyGOuP-30" value="" style="edgeStyle=orthogonalEdgeStyle;rounded=0;orthogonalLoop=1;jettySize=auto;html=1;endArrow=none;endFill=0;" edge="1" parent="1" source="D9f68r6XAVxFdLmyGOuP-13" target="D9f68r6XAVxFdLmyGOuP-29">
          <mxGeometry relative="1" as="geometry" />
        </mxCell>
        <mxCell id="D9f68r6XAVxFdLmyGOuP-13" value="02" style="whiteSpace=wrap;html=1;aspect=fixed;" vertex="1" parent="1">
          <mxGeometry x="720" y="360" width="80" height="80" as="geometry" />
        </mxCell>
        <mxCell id="D9f68r6XAVxFdLmyGOuP-19" style="edgeStyle=orthogonalEdgeStyle;rounded=0;orthogonalLoop=1;jettySize=auto;html=1;endArrow=none;endFill=0;" edge="1" parent="1" source="D9f68r6XAVxFdLmyGOuP-17">
          <mxGeometry relative="1" as="geometry">
            <mxPoint x="710" y="315" as="targetPoint" />
          </mxGeometry>
        </mxCell>
        <mxCell id="D9f68r6XAVxFdLmyGOuP-17" value="S2*S3" style="text;html=1;align=center;verticalAlign=middle;whiteSpace=wrap;rounded=0;" vertex="1" parent="1">
          <mxGeometry x="800" y="300" width="60" height="30" as="geometry" />
        </mxCell>
        <mxCell id="D9f68r6XAVxFdLmyGOuP-81" value="" style="edgeStyle=orthogonalEdgeStyle;rounded=0;orthogonalLoop=1;jettySize=auto;html=1;endArrow=none;endFill=0;" edge="1" parent="1" source="D9f68r6XAVxFdLmyGOuP-21" target="D9f68r6XAVxFdLmyGOuP-80">
          <mxGeometry relative="1" as="geometry" />
        </mxCell>
        <mxCell id="D9f68r6XAVxFdLmyGOuP-21" value="03" style="whiteSpace=wrap;html=1;aspect=fixed;" vertex="1" parent="1">
          <mxGeometry x="360" y="660" width="80" height="80" as="geometry" />
        </mxCell>
        <mxCell id="D9f68r6XAVxFdLmyGOuP-33" value="" style="edgeStyle=orthogonalEdgeStyle;rounded=0;orthogonalLoop=1;jettySize=auto;html=1;" edge="1" parent="1" source="D9f68r6XAVxFdLmyGOuP-27" target="D9f68r6XAVxFdLmyGOuP-32">
          <mxGeometry relative="1" as="geometry" />
        </mxCell>
        <mxCell id="D9f68r6XAVxFdLmyGOuP-27" value="M1+" style="whiteSpace=wrap;html=1;" vertex="1" parent="1">
          <mxGeometry x="500" y="360" width="100" height="80" as="geometry" />
        </mxCell>
        <mxCell id="D9f68r6XAVxFdLmyGOuP-36" value="" style="edgeStyle=orthogonalEdgeStyle;rounded=0;orthogonalLoop=1;jettySize=auto;html=1;" edge="1" parent="1" source="D9f68r6XAVxFdLmyGOuP-29" target="D9f68r6XAVxFdLmyGOuP-35">
          <mxGeometry relative="1" as="geometry" />
        </mxCell>
        <mxCell id="D9f68r6XAVxFdLmyGOuP-29" value="M1-" style="whiteSpace=wrap;html=1;" vertex="1" parent="1">
          <mxGeometry x="860" y="360" width="100" height="80" as="geometry" />
        </mxCell>
        <mxCell id="D9f68r6XAVxFdLmyGOuP-32" value="P1" style="whiteSpace=wrap;html=1;" vertex="1" parent="1">
          <mxGeometry x="500" y="440" width="100" height="80" as="geometry" />
        </mxCell>
        <mxCell id="D9f68r6XAVxFdLmyGOuP-35" value="P2" style="whiteSpace=wrap;html=1;" vertex="1" parent="1">
          <mxGeometry x="860" y="440" width="100" height="80" as="geometry" />
        </mxCell>
        <mxCell id="D9f68r6XAVxFdLmyGOuP-39" value="&quot;Frem&quot;" style="text;html=1;align=center;verticalAlign=middle;whiteSpace=wrap;rounded=0;" vertex="1" parent="1">
          <mxGeometry x="290" y="400" width="60" height="30" as="geometry" />
        </mxCell>
        <mxCell id="D9f68r6XAVxFdLmyGOuP-40" value="&quot;Tilbage&quot;" style="text;html=1;align=center;verticalAlign=middle;whiteSpace=wrap;rounded=0;" vertex="1" parent="1">
          <mxGeometry x="650" y="400" width="60" height="30" as="geometry" />
        </mxCell>
        <mxCell id="D9f68r6XAVxFdLmyGOuP-41" value="&lt;font style=&quot;font-size: 18px;&quot;&gt;&quot;START1&quot; AND &quot;STOP&quot;&lt;/font&gt;" style="text;html=1;align=center;verticalAlign=middle;whiteSpace=wrap;rounded=0;" vertex="1" parent="1">
          <mxGeometry x="390" y="330" width="220" height="30" as="geometry" />
        </mxCell>
        <mxCell id="D9f68r6XAVxFdLmyGOuP-42" value="&lt;font style=&quot;font-size: 18px;&quot;&gt;&quot;START2&quot; AND &quot;STOP&quot;&lt;/font&gt;" style="text;html=1;align=center;verticalAlign=middle;whiteSpace=wrap;rounded=0;" vertex="1" parent="1">
          <mxGeometry x="710" y="330" width="300" height="30" as="geometry" />
        </mxCell>
        <mxCell id="D9f68r6XAVxFdLmyGOuP-58" style="edgeStyle=orthogonalEdgeStyle;rounded=0;orthogonalLoop=1;jettySize=auto;html=1;endArrow=none;endFill=0;" edge="1" parent="1" source="D9f68r6XAVxFdLmyGOuP-44">
          <mxGeometry relative="1" as="geometry">
            <mxPoint x="370" y="574" as="targetPoint" />
          </mxGeometry>
        </mxCell>
        <mxCell id="D9f68r6XAVxFdLmyGOuP-44" value="90s/X01" style="text;html=1;align=center;verticalAlign=middle;whiteSpace=wrap;rounded=0;" vertex="1" parent="1">
          <mxGeometry x="425" y="568" width="77" height="12" as="geometry" />
        </mxCell>
        <mxCell id="D9f68r6XAVxFdLmyGOuP-56" style="edgeStyle=orthogonalEdgeStyle;rounded=0;orthogonalLoop=1;jettySize=auto;html=1;endArrow=none;endFill=0;" edge="1" parent="1" source="D9f68r6XAVxFdLmyGOuP-55">
          <mxGeometry relative="1" as="geometry">
            <mxPoint x="730" y="583" as="targetPoint" />
          </mxGeometry>
        </mxCell>
        <mxCell id="D9f68r6XAVxFdLmyGOuP-55" value="120s/X02" style="text;html=1;align=center;verticalAlign=middle;whiteSpace=wrap;rounded=0;" vertex="1" parent="1">
          <mxGeometry x="780" y="568" width="60" height="30" as="geometry" />
        </mxCell>
        <mxCell id="D9f68r6XAVxFdLmyGOuP-60" value="" style="edgeStyle=orthogonalEdgeStyle;rounded=0;orthogonalLoop=1;jettySize=auto;html=1;" edge="1" parent="1" source="D9f68r6XAVxFdLmyGOuP-61" target="D9f68r6XAVxFdLmyGOuP-62">
          <mxGeometry relative="1" as="geometry" />
        </mxCell>
        <mxCell id="D9f68r6XAVxFdLmyGOuP-63" style="edgeStyle=orthogonalEdgeStyle;rounded=0;orthogonalLoop=1;jettySize=auto;html=1;entryX=1;entryY=0.5;entryDx=0;entryDy=0;endArrow=none;endFill=0;" edge="1" parent="1" source="D9f68r6XAVxFdLmyGOuP-61" target="D9f68r6XAVxFdLmyGOuP-21">
          <mxGeometry relative="1" as="geometry" />
        </mxCell>
        <mxCell id="D9f68r6XAVxFdLmyGOuP-61" value="M1+" style="whiteSpace=wrap;html=1;" vertex="1" parent="1">
          <mxGeometry x="502" y="660" width="100" height="80" as="geometry" />
        </mxCell>
        <mxCell id="D9f68r6XAVxFdLmyGOuP-74" value="" style="edgeStyle=orthogonalEdgeStyle;rounded=0;orthogonalLoop=1;jettySize=auto;html=1;" edge="1" parent="1" source="D9f68r6XAVxFdLmyGOuP-62" target="D9f68r6XAVxFdLmyGOuP-73">
          <mxGeometry relative="1" as="geometry" />
        </mxCell>
        <mxCell id="D9f68r6XAVxFdLmyGOuP-62" value="P1" style="whiteSpace=wrap;html=1;" vertex="1" parent="1">
          <mxGeometry x="502" y="740" width="100" height="80" as="geometry" />
        </mxCell>
        <mxCell id="D9f68r6XAVxFdLmyGOuP-64" value="" style="edgeStyle=orthogonalEdgeStyle;rounded=0;orthogonalLoop=1;jettySize=auto;html=1;" edge="1" parent="1">
          <mxGeometry relative="1" as="geometry">
            <mxPoint x="830" y="740" as="sourcePoint" />
            <mxPoint x="830" y="740" as="targetPoint" />
          </mxGeometry>
        </mxCell>
        <mxCell id="D9f68r6XAVxFdLmyGOuP-67" value="" style="edgeStyle=orthogonalEdgeStyle;rounded=0;orthogonalLoop=1;jettySize=auto;html=1;" edge="1" parent="1" source="D9f68r6XAVxFdLmyGOuP-68" target="D9f68r6XAVxFdLmyGOuP-69">
          <mxGeometry relative="1" as="geometry" />
        </mxCell>
        <mxCell id="D9f68r6XAVxFdLmyGOuP-72" style="edgeStyle=orthogonalEdgeStyle;rounded=0;orthogonalLoop=1;jettySize=auto;html=1;endArrow=none;endFill=0;" edge="1" parent="1" source="D9f68r6XAVxFdLmyGOuP-68" target="D9f68r6XAVxFdLmyGOuP-70">
          <mxGeometry relative="1" as="geometry" />
        </mxCell>
        <mxCell id="D9f68r6XAVxFdLmyGOuP-68" value="M1-" style="whiteSpace=wrap;html=1;" vertex="1" parent="1">
          <mxGeometry x="870" y="660" width="100" height="80" as="geometry" />
        </mxCell>
        <mxCell id="D9f68r6XAVxFdLmyGOuP-76" value="" style="edgeStyle=orthogonalEdgeStyle;rounded=0;orthogonalLoop=1;jettySize=auto;html=1;" edge="1" parent="1" source="D9f68r6XAVxFdLmyGOuP-69" target="D9f68r6XAVxFdLmyGOuP-75">
          <mxGeometry relative="1" as="geometry" />
        </mxCell>
        <mxCell id="D9f68r6XAVxFdLmyGOuP-69" value="P2" style="whiteSpace=wrap;html=1;" vertex="1" parent="1">
          <mxGeometry x="870" y="740" width="100" height="80" as="geometry" />
        </mxCell>
        <mxCell id="D9f68r6XAVxFdLmyGOuP-71" value="" style="edgeStyle=orthogonalEdgeStyle;rounded=0;orthogonalLoop=1;jettySize=auto;html=1;endArrow=none;endFill=0;" edge="1" parent="1" target="D9f68r6XAVxFdLmyGOuP-70">
          <mxGeometry relative="1" as="geometry">
            <mxPoint x="760" y="440" as="targetPoint" />
            <mxPoint x="760" y="700" as="sourcePoint" />
            <Array as="points">
              <mxPoint x="760" y="680" />
            </Array>
          </mxGeometry>
        </mxCell>
        <mxCell id="D9f68r6XAVxFdLmyGOuP-82" style="edgeStyle=orthogonalEdgeStyle;rounded=0;orthogonalLoop=1;jettySize=auto;html=1;endArrow=none;endFill=0;" edge="1" parent="1" source="D9f68r6XAVxFdLmyGOuP-70">
          <mxGeometry relative="1" as="geometry">
            <mxPoint x="400" y="1070" as="targetPoint" />
            <Array as="points">
              <mxPoint x="760" y="1070" />
            </Array>
          </mxGeometry>
        </mxCell>
        <mxCell id="D9f68r6XAVxFdLmyGOuP-70" value="04" style="whiteSpace=wrap;html=1;aspect=fixed;" vertex="1" parent="1">
          <mxGeometry x="720" y="660" width="80" height="80" as="geometry" />
        </mxCell>
        <mxCell id="D9f68r6XAVxFdLmyGOuP-73" value="P3" style="whiteSpace=wrap;html=1;" vertex="1" parent="1">
          <mxGeometry x="502" y="820" width="100" height="80" as="geometry" />
        </mxCell>
        <mxCell id="D9f68r6XAVxFdLmyGOuP-75" value="P3" style="whiteSpace=wrap;html=1;" vertex="1" parent="1">
          <mxGeometry x="870" y="820" width="100" height="80" as="geometry" />
        </mxCell>
        <mxCell id="D9f68r6XAVxFdLmyGOuP-77" value="&quot;Tid gået operatør kan trykke stop&quot;" style="text;html=1;align=center;verticalAlign=middle;whiteSpace=wrap;rounded=0;" vertex="1" parent="1">
          <mxGeometry x="610" y="680" width="100" height="30" as="geometry" />
        </mxCell>
        <mxCell id="D9f68r6XAVxFdLmyGOuP-78" value="&quot;Tid gået operatør kan trykke stop&quot;" style="text;html=1;align=center;verticalAlign=middle;whiteSpace=wrap;rounded=0;" vertex="1" parent="1">
          <mxGeometry x="990" y="685" width="100" height="30" as="geometry" />
        </mxCell>
        <mxCell id="D9f68r6XAVxFdLmyGOuP-95" style="edgeStyle=orthogonalEdgeStyle;rounded=0;orthogonalLoop=1;jettySize=auto;html=1;entryX=0.5;entryY=0;entryDx=0;entryDy=0;" edge="1" parent="1" source="D9f68r6XAVxFdLmyGOuP-80" target="D9f68r6XAVxFdLmyGOuP-1">
          <mxGeometry relative="1" as="geometry">
            <Array as="points">
              <mxPoint x="400" y="1270" />
              <mxPoint x="210" y="1270" />
              <mxPoint x="210" y="180" />
              <mxPoint x="400" y="180" />
            </Array>
          </mxGeometry>
        </mxCell>
        <mxCell id="D9f68r6XAVxFdLmyGOuP-80" value="05" style="whiteSpace=wrap;html=1;aspect=fixed;" vertex="1" parent="1">
          <mxGeometry x="360" y="1100" width="80" height="80" as="geometry" />
        </mxCell>
        <mxCell id="D9f68r6XAVxFdLmyGOuP-87" style="edgeStyle=orthogonalEdgeStyle;rounded=0;orthogonalLoop=1;jettySize=auto;html=1;endArrow=none;endFill=0;" edge="1" parent="1" source="D9f68r6XAVxFdLmyGOuP-83">
          <mxGeometry relative="1" as="geometry">
            <mxPoint x="370" y="1030" as="targetPoint" />
          </mxGeometry>
        </mxCell>
        <mxCell id="D9f68r6XAVxFdLmyGOuP-83" value="S3" style="text;html=1;align=center;verticalAlign=middle;whiteSpace=wrap;rounded=0;" vertex="1" parent="1">
          <mxGeometry x="422" y="1020" width="60" height="20" as="geometry" />
        </mxCell>
        <mxCell id="D9f68r6XAVxFdLmyGOuP-86" value="" style="endArrow=none;html=1;rounded=0;exitX=0.25;exitY=0;exitDx=0;exitDy=0;entryX=0.75;entryY=0;entryDx=0;entryDy=0;" edge="1" parent="1" source="D9f68r6XAVxFdLmyGOuP-83" target="D9f68r6XAVxFdLmyGOuP-83">
          <mxGeometry width="50" height="50" relative="1" as="geometry">
            <mxPoint x="440" y="980" as="sourcePoint" />
            <mxPoint x="490" y="930" as="targetPoint" />
          </mxGeometry>
        </mxCell>
        <mxCell id="D9f68r6XAVxFdLmyGOuP-90" style="edgeStyle=orthogonalEdgeStyle;rounded=0;orthogonalLoop=1;jettySize=auto;html=1;endArrow=none;endFill=0;" edge="1" parent="1" source="D9f68r6XAVxFdLmyGOuP-91">
          <mxGeometry relative="1" as="geometry">
            <mxPoint x="740" y="1020" as="targetPoint" />
          </mxGeometry>
        </mxCell>
        <mxCell id="D9f68r6XAVxFdLmyGOuP-91" value="S3" style="text;html=1;align=center;verticalAlign=middle;whiteSpace=wrap;rounded=0;" vertex="1" parent="1">
          <mxGeometry x="780" y="1010" width="60" height="20" as="geometry" />
        </mxCell>
        <mxCell id="D9f68r6XAVxFdLmyGOuP-92" value="" style="endArrow=none;html=1;rounded=0;exitX=0.25;exitY=0;exitDx=0;exitDy=0;entryX=0.75;entryY=0;entryDx=0;entryDy=0;" edge="1" parent="1" source="D9f68r6XAVxFdLmyGOuP-91" target="D9f68r6XAVxFdLmyGOuP-91">
          <mxGeometry width="50" height="50" relative="1" as="geometry">
            <mxPoint x="798" y="990" as="sourcePoint" />
            <mxPoint x="848" y="940" as="targetPoint" />
          </mxGeometry>
        </mxCell>
        <mxCell id="D9f68r6XAVxFdLmyGOuP-97" style="edgeStyle=orthogonalEdgeStyle;rounded=0;orthogonalLoop=1;jettySize=auto;html=1;endArrow=none;endFill=0;" edge="1" parent="1" source="D9f68r6XAVxFdLmyGOuP-96">
          <mxGeometry relative="1" as="geometry">
            <mxPoint x="370" y="1225.0000000000002" as="targetPoint" />
          </mxGeometry>
        </mxCell>
        <mxCell id="D9f68r6XAVxFdLmyGOuP-96" value="&lt;u&gt;1&lt;/u&gt;" style="text;html=1;align=center;verticalAlign=middle;whiteSpace=wrap;rounded=0;" vertex="1" parent="1">
          <mxGeometry x="420" y="1200" width="74" height="50" as="geometry" />
        </mxCell>
      </root>
    </mxGraphModel>
  </diagram>
</mxfile>
